HIERARCHY
ROOT pelvis
{
  OFFSET 0 100 0
  CHANNELS 6 Xposition Yposition Zposition Zrotation Xrotation Yrotation
  JOINT pelvis_right_femur
  {
    OFFSET -10.78128 -3.44521 -0.5502486
    CHANNELS 3 Zrotation Xrotation Yrotation
    JOINT right_femur_tibia
    {
      OFFSET -0.8047443 -44.0398 -0.1307829
      CHANNELS 3 Zrotation Xrotation Yrotation
      JOINT right_tibia_foot
      {
        OFFSET 3.006224 -47.83518 -5
        CHANNELS 3 Zrotation Xrotation Yrotation
        End Site
        {
          OFFSET 0 -5 15
        }
      }
    }
  }
  JOINT pelvis_left_femur
  {
    OFFSET 10.78128 -3.44521 -0.5502486
    CHANNELS 3 Zrotation Xrotation Yrotation
    JOINT left_femur_tibia
    {
      OFFSET 0.8047443 -44.0398 -0.1307829
      CHANNELS 3 Zrotation Xrotation Yrotation
      JOINT left_tibia_foot
      {
        OFFSET -4.370144 -48.10324 -4.275266
        CHANNELS 3 Zrotation Xrotation Yrotation
        End Site
        {
          OFFSET 0 -5 15
        }
      }
    }
  }
  JOINT pelvis_spine1
  {
    OFFSET 0 6.468898 -3.129235
    CHANNELS 3 Zrotation Xrotation Yrotation
    JOINT spine1
    {
      OFFSET 0 23.15396 4.99043
      CHANNELS 3 Zrotation Xrotation Yrotation
      JOINT spine2
      {
        OFFSET 0 20.79997 -5.064912
        CHANNELS 3 Zrotation Xrotation Yrotation
        JOINT neck
        {
          OFFSET 0 14.38658 9.616178
          CHANNELS 3 Zrotation Xrotation Yrotation
          End Site
          {
            OFFSET 0 20 0
          }
        }
      }
      JOINT right_manubrium
      {
        OFFSET -5.722621 16.35077 3.967754
        CHANNELS 3 Zrotation Xrotation Yrotation
        JOINT right_clavicle
        {
          OFFSET -13.16364 1.694482 -4.693211
          CHANNELS 3 Zrotation Xrotation Yrotation
          JOINT right_humerus
          {
            OFFSET -28.5034 -0.3100689 -2.792744
            CHANNELS 3 Zrotation Xrotation Yrotation
            JOINT right_radius
            {
              OFFSET -25.15693 0.02248979 -1.271978
              CHANNELS 3 Zrotation Xrotation Yrotation
              End Site
              {
                OFFSET -15 0 0
              }
            }
          }
        }
      }
      JOINT left_manubrium
      {
        OFFSET 5.722621 16.35077 3.967754
        CHANNELS 3 Zrotation Xrotation Yrotation
        JOINT left_clavicle
        {
          OFFSET 13.16364 1.694482 -4.693211
          CHANNELS 3 Zrotation Xrotation Yrotation
          JOINT left_humerus
          {
            OFFSET 29.39168 -1.063119 -2.237045
            CHANNELS 3 Zrotation Xrotation Yrotation
            JOINT left_radius
            {
              OFFSET 24.59957 -0.9528479 0.9047498
              CHANNELS 3 Zrotation Xrotation Yrotation
              End Site
              {
                OFFSET 15 -0 -0
              }
            }
          }
        }
      }
    }
  }
}
MOTION
Frames: 7
Frame Time: 0.0416666666667
-17.59629 126.1059 211.4513 -0.3718052 -7.428864 -2.61143 2.19327 15.80944 -4.624052 -0 15.70402 -0 -12.70975 -13.30053 1.23725 1.713205 -19.50969 -8.956604 -0 14.48487 -0 -4.883821 -2.786531 17.87019 0.1347968 -0.3943642 5.97149 -1.775597 9.64963 -2.044577 0.8757075 23.37843 7.749547 6.835588 -14.06494 5.502915 3.748032 -21.1258 10.75158 78.48271 30.68497 -3.240721 -0 0 22.33062 -27.87341 14.72311 13.52875 6.389769 -19.77392 -5.916906 -96.96025 12.8573 28.73715 -0 0 4.406026 10.466 19.10845 -0.7894927
-16.83147 126.0606 217.1793 -0.4762456 -7.422933 -3.419505 2.19327 15.80944 -4.624052 -0 15.70402 -0 -12.70975 -13.30053 1.23725 1.713205 -19.50969 -8.956604 -0 14.48487 -0 -4.883821 -2.786531 17.87019 0.1347968 -0.3943642 5.97149 -1.775597 9.64963 -2.044577 0.8757075 23.37843 7.749547 6.835588 -14.06494 5.502915 3.748032 -21.1258 10.75158 78.48271 30.68497 -3.240721 -0 0 22.33062 -27.87341 14.72311 13.52875 6.389769 -19.77392 -5.916906 -96.96025 12.8573 28.73715 -0 0 4.406026 10.466 19.10845 -0.7894927
-16.14682 126.0154 222.9174 -0.5805898 -7.415543 -4.227556 2.19327 15.80944 -4.624052 -0 15.70402 -0 -12.70975 -13.30053 1.23725 1.713205 -19.50969 -8.956604 -0 14.48487 -0 -4.883821 -2.786531 17.87019 0.1347968 -0.3943642 5.97149 -1.775597 9.64963 -2.044577 0.8757075 23.37843 7.749547 6.835588 -14.06494 5.502915 3.748032 -21.1258 10.75158 78.48271 30.68497 -3.240721 -0 0 22.33062 -27.87341 14.72311 13.52875 6.389769 -19.77392 -5.916906 -96.96025 12.8573 28.73715 -0 0 4.406026 10.466 19.10845 -0.7894927
-15.5425 125.9701 228.6645 -0.6848166 -7.406694 -5.035578 2.19327 15.80944 -4.624052 -0 15.70402 -0 -12.70975 -13.30053 1.23725 1.713205 -19.50969 -8.956604 -0 14.48487 -0 -4.883821 -2.786531 17.87019 0.1347968 -0.3943642 5.97149 -1.775597 9.64963 -2.044577 0.8757075 23.37843 7.749547 6.835588 -14.06494 5.502915 3.748032 -21.1258 10.75158 78.48271 30.68497 -3.240721 -0 0 22.33062 -27.87341 14.72311 13.52875 6.389769 -19.77392 -5.916906 -96.96025 12.8573 28.73715 -0 0 4.406026 10.466 19.10845 -0.7894927
-15.0186 125.9248 234.4195 -0.7889049 -7.396389 -5.843564 2.19327 15.80944 -4.624052 -0 15.70402 -0 -12.70975 -13.30053 1.23725 1.713205 -19.50969 -8.956604 -0 14.48487 -0 -4.883821 -2.786531 17.87019 0.1347968 -0.3943642 5.97149 -1.775597 9.64963 -2.044577 0.8757075 23.37843 7.749547 6.835588 -14.06494 5.502915 3.748032 -21.1258 10.75158 78.48271 30.68497 -3.240721 -0 0 22.33062 -27.87341 14.72311 13.52875 6.389769 -19.77392 -5.916906 -96.96025 12.8573 28.73715 -0 0 4.406026 10.466 19.10845 -0.7894927
-14.57524 125.8795 240.1813 -0.8928337 -7.384629 -6.651509 2.19327 15.80944 -4.624052 -0 15.70402 -0 -12.70975 -13.30053 1.23725 1.713205 -19.50969 -8.956604 -0 14.48487 -0 -4.883821 -2.786531 17.87019 0.1347968 -0.3943642 5.97149 -1.775597 9.64963 -2.044577 0.8757075 23.37843 7.749547 6.835588 -14.06494 5.502915 3.748032 -21.1258 10.75158 78.48271 30.68497 -3.240721 -0 0 22.33062 -27.87341 14.72311 13.52875 6.389769 -19.77392 -5.916906 -96.96025 12.8573 28.73715 -0 0 4.406026 10.466 19.10845 -0.7894927
-14.21251 125.8342 245.9487 -0.9965821 -7.371417 -7.45941 2.19327 15.80944 -4.624052 -0 15.70402 -0 -12.70975 -13.30053 1.23725 1.713205 -19.50969 -8.956604 -0 14.48487 -0 -4.883821 -2.786531 17.87019 0.1347968 -0.3943642 5.97149 -1.775597 9.64963 -2.044577 0.8757075 23.37843 7.749547 6.835588 -14.06494 5.502915 3.748032 -21.1258 10.75158 78.48271 30.68497 -3.240721 -0 0 22.33062 -27.87341 14.72311 13.52875 6.389769 -19.77392 -5.916906 -96.96025 12.8573 28.73715 -0 0 4.406026 10.466 19.10845 -0.7894927
